# xmcd
#
# Track frame offsets:
#	150
#	13360
#	23177
#	42137
#	54245
#	72367
#	87067
#	102477
#	107835
#	120860
#	140757
#	151750
#	166100
#	188235
#
# Disc length: 2719 seconds
#
# Revision: 1
# Processed by: cddbd v1.5.1PL2 Copyright (c) Steve Scherf et al.
# Submitted via: CDmax 2.0
#
DISCID=af0a9d0e
DTITLE=Howe Gelb - 'Sno angel like you
DYEAR=2006
DGENRE=Americana
TTITLE0=Get to leave
TTITLE1=Paradise here abouts
TTITLE2=But I did not
TTITLE3=Hey man
TTITLE4=The farm
TTITLE5=That's how things get done
TTITLE6=Love knows (no borders)
TTITLE7=The voice within
TTITLE8=Nail in the sky
TTITLE9=Howlin' a gale
TTITLE10=Robes of bible black
TTITLE11=Worried spirits
TTITLE12=Neon filler
TTITLE13=Chore of enchantment
EXTD=
EXTT0=
EXTT1=
EXTT2=
EXTT3=
EXTT4=
EXTT5=
EXTT6=
EXTT7=
EXTT8=
EXTT9=
EXTT10=
EXTT11=
EXTT12=
EXTT13=
PLAYORDER=
